<?xml version="1.0" encoding="UTF-8" ?>
<svg version="1.1" width="900" height="900" xmlns="http://www.w3.org/2000/svg" shape-rendering="crispEdges">
<rect x="150" y="210" width="30" height="30" fill="#000000" />
<rect x="180" y="210" width="30" height="30" fill="#000000" />
<rect x="210" y="210" width="30" height="30" fill="#000000" />
<rect x="240" y="210" width="30" height="30" fill="#000000" />
<rect x="270" y="210" width="30" height="30" fill="#000000" />
<rect x="300" y="210" width="30" height="30" fill="#000000" />
<rect x="330" y="210" width="30" height="30" fill="#000000" />
<rect x="360" y="210" width="30" height="30" fill="#000000" />
<rect x="390" y="210" width="30" height="30" fill="#000000" />
<rect x="420" y="210" width="30" height="30" fill="#000000" />
<rect x="450" y="210" width="30" height="30" fill="#000000" />
<rect x="480" y="210" width="30" height="30" fill="#000000" />
<rect x="510" y="210" width="30" height="30" fill="#000000" />
<rect x="540" y="210" width="30" height="30" fill="#000000" />
<rect x="570" y="210" width="30" height="30" fill="#000000" />
<rect x="600" y="210" width="30" height="30" fill="#000000" />
<rect x="630" y="210" width="30" height="30" fill="#000000" />
<rect x="660" y="210" width="30" height="30" fill="#000000" />
<rect x="690" y="210" width="30" height="30" fill="#000000" />
<rect x="720" y="210" width="30" height="30" fill="#000000" />
<rect x="120" y="240" width="30" height="30" fill="#000000" />
<rect x="150" y="240" width="30" height="30" fill="#6565BC" />
<rect x="180" y="240" width="30" height="30" fill="#6565BC" />
<rect x="210" y="240" width="30" height="30" fill="#6565BC" />
<rect x="240" y="240" width="30" height="30" fill="#6565BC" />
<rect x="270" y="240" width="30" height="30" fill="#6565BC" />
<rect x="300" y="240" width="30" height="30" fill="#6565BC" />
<rect x="330" y="240" width="30" height="30" fill="#6565BC" />
<rect x="360" y="240" width="30" height="30" fill="#6565BC" />
<rect x="390" y="240" width="30" height="30" fill="#6565BC" />
<rect x="420" y="240" width="30" height="30" fill="#6565BC" />
<rect x="450" y="240" width="30" height="30" fill="#6565BC" />
<rect x="480" y="240" width="30" height="30" fill="#6565BC" />
<rect x="510" y="240" width="30" height="30" fill="#6565BC" />
<rect x="540" y="240" width="30" height="30" fill="#6565BC" />
<rect x="570" y="240" width="30" height="30" fill="#6565BC" />
<rect x="600" y="240" width="30" height="30" fill="#6565BC" />
<rect x="630" y="240" width="30" height="30" fill="#6565BC" />
<rect x="660" y="240" width="30" height="30" fill="#6565BC" />
<rect x="690" y="240" width="30" height="30" fill="#6565BC" />
<rect x="720" y="240" width="30" height="30" fill="#6565BC" />
<rect x="750" y="240" width="30" height="30" fill="#000000" />
<rect x="90" y="270" width="30" height="30" fill="#000000" />
<rect x="120" y="270" width="30" height="30" fill="#6565BC" />
<rect x="150" y="270" width="30" height="30" fill="#28287D" />
<rect x="180" y="270" width="30" height="30" fill="#46448D" />
<rect x="210" y="270" width="30" height="30" fill="#46448D" />
<rect x="240" y="270" width="30" height="30" fill="#46448D" />
<rect x="270" y="270" width="30" height="30" fill="#46448D" />
<rect x="300" y="270" width="30" height="30" fill="#46448D" />
<rect x="330" y="270" width="30" height="30" fill="#46448D" />
<rect x="360" y="270" width="30" height="30" fill="#46448D" />
<rect x="390" y="270" width="30" height="30" fill="#46448D" />
<rect x="420" y="270" width="30" height="30" fill="#46448D" />
<rect x="450" y="270" width="30" height="30" fill="#46448D" />
<rect x="480" y="270" width="30" height="30" fill="#46448D" />
<rect x="510" y="270" width="30" height="30" fill="#46448D" />
<rect x="540" y="270" width="30" height="30" fill="#46448D" />
<rect x="570" y="270" width="30" height="30" fill="#46448D" />
<rect x="600" y="270" width="30" height="30" fill="#46448D" />
<rect x="630" y="270" width="30" height="30" fill="#46448D" />
<rect x="660" y="270" width="30" height="30" fill="#46448D" />
<rect x="690" y="270" width="30" height="30" fill="#46448D" />
<rect x="720" y="270" width="30" height="30" fill="#28287D" />
<rect x="750" y="270" width="30" height="30" fill="#28287D" />
<rect x="780" y="270" width="30" height="30" fill="#000000" />
<rect x="90" y="300" width="30" height="30" fill="#000000" />
<rect x="120" y="300" width="30" height="30" fill="#28287D" />
<rect x="150" y="300" width="30" height="30" fill="#46448D" />
<rect x="180" y="300" width="30" height="30" fill="#46448D" />
<rect x="210" y="300" width="30" height="30" fill="#C4BEBB" />
<rect x="240" y="300" width="30" height="30" fill="#C4BEBB" />
<rect x="270" y="300" width="30" height="30" fill="#C4BEBB" />
<rect x="300" y="300" width="30" height="30" fill="#46448D" />
<rect x="330" y="300" width="30" height="30" fill="#C4BEBB" />
<rect x="360" y="300" width="30" height="30" fill="#46448D" />
<rect x="390" y="300" width="30" height="30" fill="#C4BEBB" />
<rect x="420" y="300" width="30" height="30" fill="#46448D" />
<rect x="450" y="300" width="30" height="30" fill="#C4BEBB" />
<rect x="480" y="300" width="30" height="30" fill="#C4BEBB" />
<rect x="510" y="300" width="30" height="30" fill="#C4BEBB" />
<rect x="540" y="300" width="30" height="30" fill="#46448D" />
<rect x="570" y="300" width="30" height="30" fill="#C4BEBB" />
<rect x="600" y="300" width="30" height="30" fill="#C4BEBB" />
<rect x="630" y="300" width="30" height="30" fill="#C4BEBB" />
<rect x="660" y="300" width="30" height="30" fill="#46448D" />
<rect x="690" y="300" width="30" height="30" fill="#46448D" />
<rect x="720" y="300" width="30" height="30" fill="#46448D" />
<rect x="750" y="300" width="30" height="30" fill="#46448D" />
<rect x="780" y="300" width="30" height="30" fill="#000000" />
<rect x="60" y="330" width="30" height="30" fill="#000000" />
<rect x="90" y="330" width="30" height="30" fill="#000000" />
<rect x="120" y="330" width="30" height="30" fill="#46448D" />
<rect x="150" y="330" width="30" height="30" fill="#46448D" />
<rect x="180" y="330" width="30" height="30" fill="#46448D" />
<rect x="210" y="330" width="30" height="30" fill="#46448D" />
<rect x="240" y="330" width="30" height="30" fill="#C4BEBB" />
<rect x="270" y="330" width="30" height="30" fill="#46448D" />
<rect x="300" y="330" width="30" height="30" fill="#46448D" />
<rect x="330" y="330" width="30" height="30" fill="#C4BEBB" />
<rect x="360" y="330" width="30" height="30" fill="#46448D" />
<rect x="390" y="330" width="30" height="30" fill="#C4BEBB" />
<rect x="420" y="330" width="30" height="30" fill="#46448D" />
<rect x="450" y="330" width="30" height="30" fill="#46448D" />
<rect x="480" y="330" width="30" height="30" fill="#C4BEBB" />
<rect x="510" y="330" width="30" height="30" fill="#46448D" />
<rect x="540" y="330" width="30" height="30" fill="#46448D" />
<rect x="570" y="330" width="30" height="30" fill="#C4BEBB" />
<rect x="600" y="330" width="30" height="30" fill="#46448D" />
<rect x="630" y="330" width="30" height="30" fill="#46448D" />
<rect x="660" y="330" width="30" height="30" fill="#C4BEBB" />
<rect x="690" y="330" width="30" height="30" fill="#46448D" />
<rect x="720" y="330" width="30" height="30" fill="#46448D" />
<rect x="750" y="330" width="30" height="30" fill="#46448D" />
<rect x="780" y="330" width="30" height="30" fill="#000000" />
<rect x="810" y="330" width="30" height="30" fill="#000000" />
<rect x="30" y="360" width="30" height="30" fill="#000000" />
<rect x="60" y="360" width="30" height="30" fill="#847E87" />
<rect x="90" y="360" width="30" height="30" fill="#000000" />
<rect x="120" y="360" width="30" height="30" fill="#46448D" />
<rect x="150" y="360" width="30" height="30" fill="#46448D" />
<rect x="180" y="360" width="30" height="30" fill="#46448D" />
<rect x="210" y="360" width="30" height="30" fill="#46448D" />
<rect x="240" y="360" width="30" height="30" fill="#C4BEBB" />
<rect x="270" y="360" width="30" height="30" fill="#46448D" />
<rect x="300" y="360" width="30" height="30" fill="#46448D" />
<rect x="330" y="360" width="30" height="30" fill="#46448D" />
<rect x="360" y="360" width="30" height="30" fill="#C4BEBB" />
<rect x="390" y="360" width="30" height="30" fill="#46448D" />
<rect x="420" y="360" width="30" height="30" fill="#46448D" />
<rect x="450" y="360" width="30" height="30" fill="#46448D" />
<rect x="480" y="360" width="30" height="30" fill="#C4BEBB" />
<rect x="510" y="360" width="30" height="30" fill="#46448D" />
<rect x="540" y="360" width="30" height="30" fill="#46448D" />
<rect x="570" y="360" width="30" height="30" fill="#C4BEBB" />
<rect x="600" y="360" width="30" height="30" fill="#C4BEBB" />
<rect x="630" y="360" width="30" height="30" fill="#C4BEBB" />
<rect x="660" y="360" width="30" height="30" fill="#46448D" />
<rect x="690" y="360" width="30" height="30" fill="#46448D" />
<rect x="720" y="360" width="30" height="30" fill="#46448D" />
<rect x="750" y="360" width="30" height="30" fill="#46448D" />
<rect x="780" y="360" width="30" height="30" fill="#000000" />
<rect x="810" y="360" width="30" height="30" fill="#847E87" />
<rect x="840" y="360" width="30" height="30" fill="#000000" />
<rect x="30" y="390" width="30" height="30" fill="#000000" />
<rect x="60" y="390" width="30" height="30" fill="#847E87" />
<rect x="90" y="390" width="30" height="30" fill="#000000" />
<rect x="120" y="390" width="30" height="30" fill="#46448D" />
<rect x="150" y="390" width="30" height="30" fill="#46448D" />
<rect x="180" y="390" width="30" height="30" fill="#46448D" />
<rect x="210" y="390" width="30" height="30" fill="#46448D" />
<rect x="240" y="390" width="30" height="30" fill="#C4BEBB" />
<rect x="270" y="390" width="30" height="30" fill="#46448D" />
<rect x="300" y="390" width="30" height="30" fill="#46448D" />
<rect x="330" y="390" width="30" height="30" fill="#C4BEBB" />
<rect x="360" y="390" width="30" height="30" fill="#46448D" />
<rect x="390" y="390" width="30" height="30" fill="#C4BEBB" />
<rect x="420" y="390" width="30" height="30" fill="#46448D" />
<rect x="450" y="390" width="30" height="30" fill="#46448D" />
<rect x="480" y="390" width="30" height="30" fill="#C4BEBB" />
<rect x="510" y="390" width="30" height="30" fill="#46448D" />
<rect x="540" y="390" width="30" height="30" fill="#46448D" />
<rect x="570" y="390" width="30" height="30" fill="#C4BEBB" />
<rect x="600" y="390" width="30" height="30" fill="#46448D" />
<rect x="630" y="390" width="30" height="30" fill="#46448D" />
<rect x="660" y="390" width="30" height="30" fill="#C4BEBB" />
<rect x="690" y="390" width="30" height="30" fill="#46448D" />
<rect x="720" y="390" width="30" height="30" fill="#46448D" />
<rect x="750" y="390" width="30" height="30" fill="#28287D" />
<rect x="780" y="390" width="30" height="30" fill="#000000" />
<rect x="810" y="390" width="30" height="30" fill="#847E87" />
<rect x="840" y="390" width="30" height="30" fill="#000000" />
<rect x="30" y="420" width="30" height="30" fill="#000000" />
<rect x="60" y="420" width="30" height="30" fill="#847E87" />
<rect x="90" y="420" width="30" height="30" fill="#000000" />
<rect x="120" y="420" width="30" height="30" fill="#46448D" />
<rect x="150" y="420" width="30" height="30" fill="#46448D" />
<rect x="180" y="420" width="30" height="30" fill="#46448D" />
<rect x="210" y="420" width="30" height="30" fill="#46448D" />
<rect x="240" y="420" width="30" height="30" fill="#C4BEBB" />
<rect x="270" y="420" width="30" height="30" fill="#46448D" />
<rect x="300" y="420" width="30" height="30" fill="#46448D" />
<rect x="330" y="420" width="30" height="30" fill="#C4BEBB" />
<rect x="360" y="420" width="30" height="30" fill="#46448D" />
<rect x="390" y="420" width="30" height="30" fill="#C4BEBB" />
<rect x="420" y="420" width="30" height="30" fill="#46448D" />
<rect x="450" y="420" width="30" height="30" fill="#46448D" />
<rect x="480" y="420" width="30" height="30" fill="#C4BEBB" />
<rect x="510" y="420" width="30" height="30" fill="#46448D" />
<rect x="540" y="420" width="30" height="30" fill="#46448D" />
<rect x="570" y="420" width="30" height="30" fill="#C4BEBB" />
<rect x="600" y="420" width="30" height="30" fill="#46448D" />
<rect x="630" y="420" width="30" height="30" fill="#46448D" />
<rect x="660" y="420" width="30" height="30" fill="#C4BEBB" />
<rect x="690" y="420" width="30" height="30" fill="#46448D" />
<rect x="720" y="420" width="30" height="30" fill="#28287D" />
<rect x="750" y="420" width="30" height="30" fill="#28287D" />
<rect x="780" y="420" width="30" height="30" fill="#000000" />
<rect x="810" y="420" width="30" height="30" fill="#737174" />
<rect x="840" y="420" width="30" height="30" fill="#000000" />
<rect x="30" y="450" width="30" height="30" fill="#000000" />
<rect x="60" y="450" width="30" height="30" fill="#737174" />
<rect x="90" y="450" width="30" height="30" fill="#000000" />
<rect x="120" y="450" width="30" height="30" fill="#7878BC" />
<rect x="150" y="450" width="30" height="30" fill="#46448D" />
<rect x="180" y="450" width="30" height="30" fill="#46448D" />
<rect x="210" y="450" width="30" height="30" fill="#46448D" />
<rect x="240" y="450" width="30" height="30" fill="#46448D" />
<rect x="270" y="450" width="30" height="30" fill="#46448D" />
<rect x="300" y="450" width="30" height="30" fill="#46448D" />
<rect x="330" y="450" width="30" height="30" fill="#46448D" />
<rect x="360" y="450" width="30" height="30" fill="#46448D" />
<rect x="390" y="450" width="30" height="30" fill="#46448D" />
<rect x="420" y="450" width="30" height="30" fill="#46448D" />
<rect x="450" y="450" width="30" height="30" fill="#46448D" />
<rect x="480" y="450" width="30" height="30" fill="#46448D" />
<rect x="510" y="450" width="30" height="30" fill="#46448D" />
<rect x="540" y="450" width="30" height="30" fill="#46448D" />
<rect x="570" y="450" width="30" height="30" fill="#46448D" />
<rect x="600" y="450" width="30" height="30" fill="#46448D" />
<rect x="630" y="450" width="30" height="30" fill="#46448D" />
<rect x="660" y="450" width="30" height="30" fill="#46448D" />
<rect x="690" y="450" width="30" height="30" fill="#46448D" />
<rect x="720" y="450" width="30" height="30" fill="#28287D" />
<rect x="750" y="450" width="30" height="30" fill="#7878BC" />
<rect x="780" y="450" width="30" height="30" fill="#000000" />
<rect x="810" y="450" width="30" height="30" fill="#847E87" />
<rect x="840" y="450" width="30" height="30" fill="#000000" />
<rect x="30" y="480" width="30" height="30" fill="#000000" />
<rect x="60" y="480" width="30" height="30" fill="#737174" />
<rect x="90" y="480" width="30" height="30" fill="#000000" />
<rect x="120" y="480" width="30" height="30" fill="#28287D" />
<rect x="150" y="480" width="30" height="30" fill="#7878BC" />
<rect x="180" y="480" width="30" height="30" fill="#7878BC" />
<rect x="210" y="480" width="30" height="30" fill="#7878BC" />
<rect x="240" y="480" width="30" height="30" fill="#7878BC" />
<rect x="270" y="480" width="30" height="30" fill="#7878BC" />
<rect x="300" y="480" width="30" height="30" fill="#7878BC" />
<rect x="330" y="480" width="30" height="30" fill="#7878BC" />
<rect x="360" y="480" width="30" height="30" fill="#7878BC" />
<rect x="390" y="480" width="30" height="30" fill="#7878BC" />
<rect x="420" y="480" width="30" height="30" fill="#7878BC" />
<rect x="450" y="480" width="30" height="30" fill="#7878BC" />
<rect x="480" y="480" width="30" height="30" fill="#7878BC" />
<rect x="510" y="480" width="30" height="30" fill="#7878BC" />
<rect x="540" y="480" width="30" height="30" fill="#7878BC" />
<rect x="570" y="480" width="30" height="30" fill="#7878BC" />
<rect x="600" y="480" width="30" height="30" fill="#7878BC" />
<rect x="630" y="480" width="30" height="30" fill="#7878BC" />
<rect x="660" y="480" width="30" height="30" fill="#7878BC" />
<rect x="690" y="480" width="30" height="30" fill="#7878BC" />
<rect x="720" y="480" width="30" height="30" fill="#7878BC" />
<rect x="750" y="480" width="30" height="30" fill="#28287D" />
<rect x="780" y="480" width="30" height="30" fill="#000000" />
<rect x="810" y="480" width="30" height="30" fill="#737174" />
<rect x="840" y="480" width="30" height="30" fill="#000000" />
<rect x="30" y="510" width="30" height="30" fill="#000000" />
<rect x="60" y="510" width="30" height="30" fill="#737174" />
<rect x="90" y="510" width="30" height="30" fill="#000000" />
<rect x="120" y="510" width="30" height="30" fill="#28287D" />
<rect x="150" y="510" width="30" height="30" fill="#424298" />
<rect x="180" y="510" width="30" height="30" fill="#3F3F74" />
<rect x="210" y="510" width="30" height="30" fill="#3F3F74" />
<rect x="240" y="510" width="30" height="30" fill="#3F3F74" />
<rect x="270" y="510" width="30" height="30" fill="#3F3F74" />
<rect x="300" y="510" width="30" height="30" fill="#46448D" />
<rect x="330" y="510" width="30" height="30" fill="#46448D" />
<rect x="360" y="510" width="30" height="30" fill="#46448D" />
<rect x="390" y="510" width="30" height="30" fill="#424298" />
<rect x="420" y="510" width="30" height="30" fill="#46448D" />
<rect x="450" y="510" width="30" height="30" fill="#46448D" />
<rect x="480" y="510" width="30" height="30" fill="#46448D" />
<rect x="510" y="510" width="30" height="30" fill="#424298" />
<rect x="540" y="510" width="30" height="30" fill="#46448D" />
<rect x="570" y="510" width="30" height="30" fill="#46448D" />
<rect x="600" y="510" width="30" height="30" fill="#46448D" />
<rect x="630" y="510" width="30" height="30" fill="#46448D" />
<rect x="660" y="510" width="30" height="30" fill="#46448D" />
<rect x="690" y="510" width="30" height="30" fill="#46448D" />
<rect x="720" y="510" width="30" height="30" fill="#28287D" />
<rect x="750" y="510" width="30" height="30" fill="#28287D" />
<rect x="780" y="510" width="30" height="30" fill="#000000" />
<rect x="810" y="510" width="30" height="30" fill="#847E87" />
<rect x="840" y="510" width="30" height="30" fill="#000000" />
<rect x="30" y="540" width="30" height="30" fill="#000000" />
<rect x="60" y="540" width="30" height="30" fill="#847E87" />
<rect x="90" y="540" width="30" height="30" fill="#000000" />
<rect x="120" y="540" width="30" height="30" fill="#28287D" />
<rect x="150" y="540" width="30" height="30" fill="#3F3F74" />
<rect x="180" y="540" width="30" height="30" fill="#3F3F74" />
<rect x="210" y="540" width="30" height="30" fill="#3F3F74" />
<rect x="240" y="540" width="30" height="30" fill="#3F3F74" />
<rect x="270" y="540" width="30" height="30" fill="#3F3F74" />
<rect x="300" y="540" width="30" height="30" fill="#46448D" />
<rect x="330" y="540" width="30" height="30" fill="#46448D" />
<rect x="360" y="540" width="30" height="30" fill="#424298" />
<rect x="390" y="540" width="30" height="30" fill="#46448D" />
<rect x="420" y="540" width="30" height="30" fill="#424298" />
<rect x="450" y="540" width="30" height="30" fill="#424298" />
<rect x="480" y="540" width="30" height="30" fill="#46448D" />
<rect x="510" y="540" width="30" height="30" fill="#424298" />
<rect x="540" y="540" width="30" height="30" fill="#46448D" />
<rect x="570" y="540" width="30" height="30" fill="#424298" />
<rect x="600" y="540" width="30" height="30" fill="#424298" />
<rect x="630" y="540" width="30" height="30" fill="#46448D" />
<rect x="660" y="540" width="30" height="30" fill="#46448D" />
<rect x="690" y="540" width="30" height="30" fill="#3F3F74" />
<rect x="720" y="540" width="30" height="30" fill="#3F3F74" />
<rect x="750" y="540" width="30" height="30" fill="#28287D" />
<rect x="780" y="540" width="30" height="30" fill="#000000" />
<rect x="810" y="540" width="30" height="30" fill="#847E87" />
<rect x="840" y="540" width="30" height="30" fill="#000000" />
<rect x="30" y="570" width="30" height="30" fill="#000000" />
<rect x="60" y="570" width="30" height="30" fill="#847E87" />
<rect x="90" y="570" width="30" height="30" fill="#847E87" />
<rect x="120" y="570" width="30" height="30" fill="#000000" />
<rect x="150" y="570" width="30" height="30" fill="#3F3F74" />
<rect x="180" y="570" width="30" height="30" fill="#3F3F74" />
<rect x="210" y="570" width="30" height="30" fill="#3F3F74" />
<rect x="240" y="570" width="30" height="30" fill="#3F3F74" />
<rect x="270" y="570" width="30" height="30" fill="#3F3F74" />
<rect x="300" y="570" width="30" height="30" fill="#46448D" />
<rect x="330" y="570" width="30" height="30" fill="#46448D" />
<rect x="360" y="570" width="30" height="30" fill="#46448D" />
<rect x="390" y="570" width="30" height="30" fill="#46448D" />
<rect x="420" y="570" width="30" height="30" fill="#46448D" />
<rect x="450" y="570" width="30" height="30" fill="#46448D" />
<rect x="480" y="570" width="30" height="30" fill="#46448D" />
<rect x="510" y="570" width="30" height="30" fill="#424298" />
<rect x="540" y="570" width="30" height="30" fill="#46448D" />
<rect x="570" y="570" width="30" height="30" fill="#424298" />
<rect x="600" y="570" width="30" height="30" fill="#46448D" />
<rect x="630" y="570" width="30" height="30" fill="#3F3F74" />
<rect x="660" y="570" width="30" height="30" fill="#3F3F74" />
<rect x="690" y="570" width="30" height="30" fill="#3F3F74" />
<rect x="720" y="570" width="30" height="30" fill="#3F3F74" />
<rect x="750" y="570" width="30" height="30" fill="#000000" />
<rect x="780" y="570" width="30" height="30" fill="#847E87" />
<rect x="810" y="570" width="30" height="30" fill="#847E87" />
<rect x="840" y="570" width="30" height="30" fill="#000000" />
<rect x="30" y="600" width="30" height="30" fill="#000000" />
<rect x="60" y="600" width="30" height="30" fill="#C4BEBB" />
<rect x="90" y="600" width="30" height="30" fill="#847E87" />
<rect x="120" y="600" width="30" height="30" fill="#847E87" />
<rect x="150" y="600" width="30" height="30" fill="#000000" />
<rect x="180" y="600" width="30" height="30" fill="#000000" />
<rect x="210" y="600" width="30" height="30" fill="#000000" />
<rect x="240" y="600" width="30" height="30" fill="#000000" />
<rect x="270" y="600" width="30" height="30" fill="#000000" />
<rect x="300" y="600" width="30" height="30" fill="#000000" />
<rect x="330" y="600" width="30" height="30" fill="#000000" />
<rect x="360" y="600" width="30" height="30" fill="#000000" />
<rect x="390" y="600" width="30" height="30" fill="#000000" />
<rect x="420" y="600" width="30" height="30" fill="#000000" />
<rect x="450" y="600" width="30" height="30" fill="#000000" />
<rect x="480" y="600" width="30" height="30" fill="#000000" />
<rect x="510" y="600" width="30" height="30" fill="#000000" />
<rect x="540" y="600" width="30" height="30" fill="#000000" />
<rect x="570" y="600" width="30" height="30" fill="#000000" />
<rect x="600" y="600" width="30" height="30" fill="#000000" />
<rect x="630" y="600" width="30" height="30" fill="#000000" />
<rect x="660" y="600" width="30" height="30" fill="#000000" />
<rect x="690" y="600" width="30" height="30" fill="#000000" />
<rect x="720" y="600" width="30" height="30" fill="#000000" />
<rect x="750" y="600" width="30" height="30" fill="#847E87" />
<rect x="780" y="600" width="30" height="30" fill="#847E87" />
<rect x="810" y="600" width="30" height="30" fill="#C4BEBB" />
<rect x="840" y="600" width="30" height="30" fill="#000000" />
<rect x="30" y="630" width="30" height="30" fill="#000000" />
<rect x="60" y="630" width="30" height="30" fill="#737174" />
<rect x="90" y="630" width="30" height="30" fill="#C4BEBB" />
<rect x="120" y="630" width="30" height="30" fill="#847E87" />
<rect x="150" y="630" width="30" height="30" fill="#847E87" />
<rect x="180" y="630" width="30" height="30" fill="#847E87" />
<rect x="210" y="630" width="30" height="30" fill="#847E87" />
<rect x="240" y="630" width="30" height="30" fill="#847E87" />
<rect x="270" y="630" width="30" height="30" fill="#847E87" />
<rect x="300" y="630" width="30" height="30" fill="#847E87" />
<rect x="330" y="630" width="30" height="30" fill="#847E87" />
<rect x="360" y="630" width="30" height="30" fill="#847E87" />
<rect x="390" y="630" width="30" height="30" fill="#847E87" />
<rect x="420" y="630" width="30" height="30" fill="#847E87" />
<rect x="450" y="630" width="30" height="30" fill="#847E87" />
<rect x="480" y="630" width="30" height="30" fill="#847E87" />
<rect x="510" y="630" width="30" height="30" fill="#847E87" />
<rect x="540" y="630" width="30" height="30" fill="#847E87" />
<rect x="570" y="630" width="30" height="30" fill="#847E87" />
<rect x="600" y="630" width="30" height="30" fill="#847E87" />
<rect x="630" y="630" width="30" height="30" fill="#847E87" />
<rect x="660" y="630" width="30" height="30" fill="#847E87" />
<rect x="690" y="630" width="30" height="30" fill="#847E87" />
<rect x="720" y="630" width="30" height="30" fill="#847E87" />
<rect x="750" y="630" width="30" height="30" fill="#847E87" />
<rect x="780" y="630" width="30" height="30" fill="#C4BEBB" />
<rect x="810" y="630" width="30" height="30" fill="#737174" />
<rect x="840" y="630" width="30" height="30" fill="#000000" />
<rect x="60" y="660" width="30" height="30" fill="#000000" />
<rect x="90" y="660" width="30" height="30" fill="#737174" />
<rect x="120" y="660" width="30" height="30" fill="#C4BEBB" />
<rect x="150" y="660" width="30" height="30" fill="#C4BEBB" />
<rect x="180" y="660" width="30" height="30" fill="#C4BEBB" />
<rect x="210" y="660" width="30" height="30" fill="#C4BEBB" />
<rect x="240" y="660" width="30" height="30" fill="#C4BEBB" />
<rect x="270" y="660" width="30" height="30" fill="#C4BEBB" />
<rect x="300" y="660" width="30" height="30" fill="#C4BEBB" />
<rect x="330" y="660" width="30" height="30" fill="#C4BEBB" />
<rect x="360" y="660" width="30" height="30" fill="#C4BEBB" />
<rect x="390" y="660" width="30" height="30" fill="#C4BEBB" />
<rect x="420" y="660" width="30" height="30" fill="#C4BEBB" />
<rect x="450" y="660" width="30" height="30" fill="#C4BEBB" />
<rect x="480" y="660" width="30" height="30" fill="#C4BEBB" />
<rect x="510" y="660" width="30" height="30" fill="#C4BEBB" />
<rect x="540" y="660" width="30" height="30" fill="#C4BEBB" />
<rect x="570" y="660" width="30" height="30" fill="#C4BEBB" />
<rect x="600" y="660" width="30" height="30" fill="#C4BEBB" />
<rect x="630" y="660" width="30" height="30" fill="#C4BEBB" />
<rect x="660" y="660" width="30" height="30" fill="#C4BEBB" />
<rect x="690" y="660" width="30" height="30" fill="#C4BEBB" />
<rect x="720" y="660" width="30" height="30" fill="#C4BEBB" />
<rect x="750" y="660" width="30" height="30" fill="#C4BEBB" />
<rect x="780" y="660" width="30" height="30" fill="#737174" />
<rect x="810" y="660" width="30" height="30" fill="#000000" />
<rect x="90" y="690" width="30" height="30" fill="#000000" />
<rect x="120" y="690" width="30" height="30" fill="#847E87" />
<rect x="150" y="690" width="30" height="30" fill="#847E87" />
<rect x="180" y="690" width="30" height="30" fill="#737174" />
<rect x="210" y="690" width="30" height="30" fill="#737174" />
<rect x="240" y="690" width="30" height="30" fill="#737174" />
<rect x="270" y="690" width="30" height="30" fill="#737174" />
<rect x="300" y="690" width="30" height="30" fill="#847E87" />
<rect x="330" y="690" width="30" height="30" fill="#847E87" />
<rect x="360" y="690" width="30" height="30" fill="#847E87" />
<rect x="390" y="690" width="30" height="30" fill="#847E87" />
<rect x="420" y="690" width="30" height="30" fill="#847E87" />
<rect x="450" y="690" width="30" height="30" fill="#847E87" />
<rect x="480" y="690" width="30" height="30" fill="#847E87" />
<rect x="510" y="690" width="30" height="30" fill="#847E87" />
<rect x="540" y="690" width="30" height="30" fill="#737174" />
<rect x="570" y="690" width="30" height="30" fill="#737174" />
<rect x="600" y="690" width="30" height="30" fill="#737174" />
<rect x="630" y="690" width="30" height="30" fill="#737174" />
<rect x="660" y="690" width="30" height="30" fill="#737174" />
<rect x="690" y="690" width="30" height="30" fill="#847E87" />
<rect x="720" y="690" width="30" height="30" fill="#847E87" />
<rect x="750" y="690" width="30" height="30" fill="#847E87" />
<rect x="780" y="690" width="30" height="30" fill="#000000" />
<rect x="120" y="720" width="30" height="30" fill="#000000" />
<rect x="150" y="720" width="30" height="30" fill="#000000" />
<rect x="180" y="720" width="30" height="30" fill="#000000" />
<rect x="210" y="720" width="30" height="30" fill="#000000" />
<rect x="240" y="720" width="30" height="30" fill="#000000" />
<rect x="270" y="720" width="30" height="30" fill="#000000" />
<rect x="300" y="720" width="30" height="30" fill="#000000" />
<rect x="330" y="720" width="30" height="30" fill="#000000" />
<rect x="360" y="720" width="30" height="30" fill="#000000" />
<rect x="390" y="720" width="30" height="30" fill="#000000" />
<rect x="420" y="720" width="30" height="30" fill="#000000" />
<rect x="450" y="720" width="30" height="30" fill="#000000" />
<rect x="480" y="720" width="30" height="30" fill="#000000" />
<rect x="510" y="720" width="30" height="30" fill="#000000" />
<rect x="540" y="720" width="30" height="30" fill="#000000" />
<rect x="570" y="720" width="30" height="30" fill="#000000" />
<rect x="600" y="720" width="30" height="30" fill="#000000" />
<rect x="630" y="720" width="30" height="30" fill="#000000" />
<rect x="660" y="720" width="30" height="30" fill="#000000" />
<rect x="690" y="720" width="30" height="30" fill="#000000" />
<rect x="720" y="720" width="30" height="30" fill="#000000" />
<rect x="750" y="720" width="30" height="30" fill="#000000" />
</svg>